<svg width="8" height="8" viewBox="0 0 8 8" fill="none" xmlns="http://www.w3.org/2000/svg"><path d="M7.81602 2.74L5.44802 2.2L4.20402 0.116C4.16002 0.044 4.08402 0 4.00002 0C3.91602 0 3.84002 0.044 3.79602 0.116L2.55202 2.2L0.184021 2.74C0.104021 2.76 0.0360207 2.82 0.0120207 2.9C-0.0119793 2.98 0.0040207 3.068 0.0600207 3.132L1.65602 4.96L1.43602 7.376C1.42802 7.46 1.46402 7.54 1.53202 7.592C1.60002 7.64 1.68802 7.652 1.76802 7.62L4.00002 6.656L6.23202 7.612C6.26402 7.624 6.29602 7.632 6.32402 7.632C6.32402 7.632 6.32402 7.632 6.32802 7.632C6.44802 7.636 6.56802 7.528 6.56802 7.392C6.56802 7.368 6.56402 7.344 6.55602 7.324L6.34002 4.952L7.93602 3.124C7.99202 3.06 8.00802 2.972 7.98402 2.892C7.96402 2.816 7.89602 2.756 7.81602 2.74Z" fill="#F4B743"></path></svg>